<?xml version="1.0" encoding="UTF-8"?>
<svg width="28px" height="28px" viewBox="0 0 28 28" version="1.1" xmlns="http://www.w3.org/2000/svg" xmlns:xlink="http://www.w3.org/1999/xlink">
    <title>icon-instagram</title>
    <g id="icon-instagram" stroke="none" stroke-width="1" fill="none" fill-rule="evenodd">
        <g transform="translate(5.000000, 5.000000)" fill="#400000" fill-rule="nonzero" id="Combined-Shape">
            <path d="M10.7576727,0 C12.2286561,0.00417609778 12.597405,0.0186614344 13.4165029,0.0563872519 C16.8697397,0.21471998 18.7863574,2.13529598 18.9415234,5.58219949 C18.9485875,5.73809633 18.9548271,5.87765398 18.9603288,6.01160476 L18.9680386,6.20966733 C18.9871798,6.73377533 18.9952052,7.25403203 18.9976498,8.457306 L18.9983157,8.94189171 L18.9983157,10.0552407 L18.9983157,10.0552407 L18.9976469,10.5398635 C18.9951908,11.7432643 18.9871077,12.2638554 18.9676783,12.7881363 L18.9598492,12.9862555 C18.9542603,13.120238 18.9479177,13.2598144 18.9407318,13.4157112 C18.784774,16.868948 16.8626147,18.7831907 13.4157112,18.9415234 C13.2598144,18.9485875 13.120238,18.9548271 12.9862555,18.9603288 L12.7881363,18.9680386 C12.2638554,18.9871798 11.7432643,18.9952052 10.5398635,18.9976498 L10.0552407,18.9983157 L8.94189135,18.9983157 L8.94189135,18.9983157 L8.45730311,18.9976498 C6.80278555,18.9942885 6.43951031,18.9803759 5.58140782,18.9415234 C2.12817101,18.7831907 0.213928316,16.8657814 0.0555955882,13.4157112 C0.0485315127,13.2598144 0.0422918915,13.120238 0.0367902436,12.9862555 L0.0290804414,12.7881363 C0.0125159586,12.3344317 0.00427593446,11.8834903 0.000773385384,10.9904067 L0,8.23952291 C0.00417609778,6.76873816 0.0186614344,6.40050566 0.0563872519,5.58140782 C0.21471998,2.12817101 2.13212933,0.213928316 5.58219949,0.0555955882 C5.73809633,0.0485315127 5.87765398,0.0422918915 6.01160476,0.0367902436 L6.20966733,0.0290804414 C6.66322233,0.0125159586 7.11389313,0.00427593446 8.00682437,0.000773385384 L10.7576727,0 Z M9.49855953,4.62032816 C6.80452815,4.62032816 4.62032816,6.80452815 4.62032816,9.49855953 C4.62032816,12.1925909 6.80452815,14.3775825 9.49855953,14.3775825 C12.1925909,14.3775825 14.3767909,12.1933826 14.3767909,9.49855953 C14.3767909,6.80452815 12.1925909,4.62032816 9.49855953,4.62032816 Z M9.49855953,6.33190496 C11.2473445,6.33190496 12.6652141,7.74977454 12.6652141,9.49855953 C12.6652141,11.2481362 11.2473445,12.6652141 9.49855953,12.6652141 C7.74977454,12.6652141 6.33190496,11.2481362 6.33190496,9.49855953 C6.33190496,7.74977454 7.74977454,6.33190496 9.49855953,6.33190496 Z M14.5699568,3.28795825 C13.9397925,3.28795825 13.4291695,3.7985813 13.4291695,4.42795389 C13.4291695,5.05732649 13.9397925,5.56794954 14.5699568,5.56794954 C15.1993294,5.56794954 15.7091608,5.05732649 15.7091608,4.42795389 C15.7091608,3.7985813 15.1993294,3.28795825 14.5699568,3.28795825 Z"></path>
        </g>
    </g>
</svg>