<?xml version="1.0" encoding="UTF-8"?>
<svg width="28px" height="28px" viewBox="0 0 28 28" version="1.1" xmlns="http://www.w3.org/2000/svg" xmlns:xlink="http://www.w3.org/1999/xlink">
    <title>icon-discord</title>
    <g id="icon-discord" stroke="none" stroke-width="1" fill="none" fill-rule="evenodd">
        <g transform="translate(2.000000, 5.000000)" fill="#400000" fill-rule="nonzero" id="Shape">
            <path d="M19.4704713,1.40920724 C18.0045291,0.756946492 16.4325277,0.276389512 14.7889024,0.001154572 C14.75897,-0.004157368 14.72907,0.009117472 14.7136503,0.035667792 C14.5114771,0.384356202 14.2875348,0.839248702 14.1307137,1.19679214 C12.3628884,0.940147452 10.6041335,0.940147452 8.8725575,1.19679214 C8.71570398,0.831301202 8.48363075,0.384356202 8.28055047,0.035667792 C8.26513075,0.010003322 8.23523075,-0.003271528 8.20529836,0.001154572 C6.56258009,0.275509952 4.99057872,0.756066922 3.52372946,1.40920724 C3.51103087,1.41451605 3.50014636,1.42337453 3.49292242,1.43487171 C0.511166853,5.7546071 -0.305660631,9.9681663 0.0950476227,14.1294856 C0.0968607427,14.1498413 0.108646133,14.1693174 0.124964793,14.1816941 C2.09224189,15.5826537 3.99788578,16.4331623 5.86814208,16.9969011 C5.89807447,17.0057596 5.92978856,16.9951419 5.94883644,16.9712366 C6.39124629,16.3853831 6.7856153,15.7676453 7.12374768,15.1180232 C7.14370261,15.079982 7.12465472,15.0348414 7.08387022,15.0197946 C6.45833502,14.7896939 5.86269982,14.5091439 5.28974068,14.1905526 C5.24442097,14.1648882 5.2407928,14.1020306 5.28248435,14.0719369 C5.40305617,13.9843259 5.5236604,13.8931652 5.63878997,13.8011249 C5.65961955,13.784319 5.6886449,13.7807693 5.71313504,13.7913869 C9.4772307,15.4578811 13.5523123,15.4578811 17.2719953,13.7913869 C17.2964855,13.7798897 17.3255108,13.7834394 17.3472474,13.8002454 C17.4624094,13.8922856 17.5829812,13.9843259 17.7044601,14.0719369 C17.7461517,14.1020306 17.7434305,14.1648882 17.6981108,14.1905526 C17.1251517,14.5153322 16.5295165,14.7896939 15.9030742,15.018915 C15.8622897,15.0339618 15.8441489,15.079982 15.8641038,15.1180232 C16.2094925,15.7667343 16.6038615,16.3844721 17.038108,16.970357 C17.0562489,16.9951419 17.08887,17.0057596 17.1188024,16.9969011 C18.9981291,16.4331623 20.90376,15.5826537 22.8710374,14.1816941 C22.8882712,14.1693174 22.8991558,14.1507209 22.9009698,14.1303652 C23.380536,9.3194238 22.0977192,5.140419 19.5003713,1.43575128 C19.494022,1.42337453 19.4831699,1.41451605 19.4704713,1.40920724 Z M7.68585471,11.5956769 C6.55260262,11.5956769 5.61883504,10.5867837 5.61883504,9.3477584 C5.61883504,8.1087331 6.53449417,7.0998399 7.68585471,7.0998399 C8.84625327,7.0998399 9.7709828,8.1175916 9.752842,9.3477584 C9.752842,10.5867837 8.83718285,11.5956769 7.68585471,11.5956769 Z M15.328301,11.5956769 C14.1950813,11.5956769 13.2613137,10.5867837 13.2613137,9.3477584 C13.2613137,8.1087331 14.1769405,7.0998399 15.328301,7.0998399 C16.488732,7.0998399 17.4134291,8.1175916 17.3953207,9.3477584 C17.3953207,10.5867837 16.488732,11.5956769 15.328301,11.5956769 Z"></path>
        </g>
    </g>
</svg>