<?xml version="1.0" encoding="UTF-8"?>
<svg width="28px" height="28px" viewBox="0 0 28 28" version="1.1" xmlns="http://www.w3.org/2000/svg" xmlns:xlink="http://www.w3.org/1999/xlink">
    <title>icon-looksrare</title>
    <g id="icon-looksrare" stroke="none" stroke-width="1" fill="none" fill-rule="evenodd">
        <g transform="translate(3.000000, 5.000000)" fill="#400000" fill-rule="nonzero" id="Shape">
            <path d="M19.5739561,3.36565877 L23,6.73123224 L22.8307954,6.92274882 C22.3716502,7.44253081 11.5713995,18 11.4988708,18 C11.4269502,18 0.642247504,7.45464456 0.169204502,6.92181043 L0,6.73123224 L3.42604383,3.36565877 L6.85217454,0 L11.5,0 L16.1478255,0 L19.5739561,3.36565877 Z M9.84964803,2.26202844 C7.97528249,2.75980095 7.32200369,3.17021801 5.31118009,5.11319431 C4.41538642,5.97872986 3.68254328,6.71741233 3.68254328,6.75460664 C3.68254328,6.79180096 4.35684236,7.48527015 5.18088915,8.2956967 C6.85417233,9.94128909 7.4311875,10.364929 8.73748451,10.9070616 C9.91687816,11.3965592 11.8328499,11.5356967 13.1937823,11.2307204 C14.0114882,11.0474787 15.4834285,10.3669763 16.1269789,9.87474882 C16.6128772,9.50306158 19.3174568,6.85356398 19.3174568,6.74931754 C19.3174568,6.7150237 18.5846136,5.97872986 17.6888199,5.11319431 C15.862662,3.34859715 15.2632368,2.9360474 13.8360298,2.46156399 C13.0820795,2.21101422 12.9177392,2.18823696 11.6737213,2.16281517 C10.679862,2.14242654 10.2023022,2.1684455 9.84964803,2.26202844 Z M12.9271201,3.52535545 C13.906995,3.96827488 14.5583628,4.65705214 14.8989433,5.61045498 C15.0391364,6.00287204 15.067453,6.25964929 15.0420896,6.90995261 C15.0142942,7.62193365 14.9752938,7.78999053 14.7211397,8.2938199 C14.1972831,9.3321043 13.2399053,10.026 12.0428789,10.2350047 C10.5592125,10.4940853 8.94985876,9.66250241 8.26157513,8.28119428 C7.99595531,7.74818958 7.98214448,7.67175356 7.98287224,6.7393365 C7.9836211,5.82551659 8.00125381,5.72323224 8.24055485,5.2464455 C8.54178752,4.6461327 9.22590184,3.93781991 9.76930195,3.66355451 C10.4533295,3.3183128 10.8105872,3.24230332 11.630291,3.26798105 C12.2635918,3.28777252 12.5098417,3.33665404 12.9271201,3.52535545 Z M11.047543,5.28372512 C10.4143289,5.48309005 9.94033052,6.1061801 9.94033052,6.7393365 C9.94033052,7.17509006 10.2177634,7.70476778 10.5934356,7.98619905 C10.8803363,8.20109 10.9959478,8.23222751 11.5068619,8.23222751 C12.0308053,8.23222751 12.1267863,8.20467294 12.4256738,7.96854029 C13.0296157,7.49149764 13.2113281,6.79359243 12.907316,6.11854976 C12.6064308,5.45067299 11.7452076,5.06405687 11.047543,5.28372512 Z"></path>
        </g>
    </g>
</svg>