<?xml version="1.0" encoding="UTF-8"?>
<svg width="28px" height="28px" viewBox="0 0 28 28" version="1.1" xmlns="http://www.w3.org/2000/svg" xmlns:xlink="http://www.w3.org/1999/xlink">
    <title>icon-twitter</title>
    <g id="icon-twitter" stroke="none" stroke-width="1" fill="none" fill-rule="evenodd">
        <g transform="translate(3.000000, 6.000000)" fill="#400000" fill-rule="nonzero" id="Path">
            <path d="M21,2.020375 C20.227375,2.363375 19.397,2.594375 18.5255,2.6985 C19.415375,2.165625 20.09875,1.32125 20.419875,0.315 C19.58775,0.8085 18.6655,1.16725 17.68375,1.360625 C16.898875,0.52325 15.778,0 14.539,0 C11.757375,0 9.713375,2.59525 10.341625,5.289375 C6.762,5.11 3.5875,3.395 1.462125,0.788375 C0.333375,2.72475 0.87675,5.257875 2.79475,6.540625 C2.0895,6.517875 1.4245,6.3245 0.844375,6.001625 C0.797125,7.9975 2.22775,9.86475 4.29975,10.280375 C3.693375,10.444875 3.02925,10.483375 2.35375,10.353875 C2.9015,12.065375 4.49225,13.3105 6.37875,13.3455 C4.5675,14.765625 2.2855,15.4 0,15.1305 C1.906625,16.352875 4.172,17.066 6.6045,17.066 C14.60375,17.066 19.123125,10.310125 18.850125,4.25075 C19.691875,3.642625 20.4225,2.884 21,2.020375 Z"></path>
        </g>
    </g>
</svg>