<?xml version="1.0" encoding="UTF-8"?>
<svg width="28px" height="28px" viewBox="0 0 28 28" version="1.1" xmlns="http://www.w3.org/2000/svg" xmlns:xlink="http://www.w3.org/1999/xlink">
    <title>icon-opensea</title>
    <g id="icon-opensea" stroke="none" stroke-width="1" fill="none" fill-rule="evenodd">
        <g transform="translate(3.000000, 3.000000)" fill="#400000" fill-rule="nonzero" id="Path">
            <path d="M2.11657187,11.2682272 L2.19402642,11.1532453 L6.86536165,4.25169257 C6.93363818,4.15061703 7.09413389,4.16109391 7.14581017,4.27083738 C7.92618168,5.92264242 8.59960928,7.97690299 8.28412465,9.2557988 C8.14944712,9.78197955 7.78045062,10.4946337 7.36532457,11.1532453 C7.3118526,11.2490824 7.25279401,11.3431859 7.19006421,11.4337846 C7.16057481,11.475579 7.11073414,11.5 7.05722227,11.5 L2.25308502,11.5 C2.12391429,11.5 2.04829535,11.3675691 2.11657187,11.2682272 Z"></path>
            <path d="M23,12.6961862 L23,13.8493687 C23,13.9155649 22.9578389,13.9744413 22.8964834,14.0001799 C22.5208472,14.1546907 21.2347458,14.7211775 20.7,15.4347758 C19.3353389,17.2574391 18.2926695,19.8636364 15.9619917,19.8636364 L6.23872927,19.8636364 C2.79258472,19.8636364 0,17.1746938 0,13.8567282 L0,13.7500346 C0,13.6617598 0.0747458544,13.5900339 0.166737563,13.5900339 L5.58707643,13.5900339 C5.69440699,13.5900339 5.77300829,13.6856684 5.76343186,13.7868324 C5.72508472,14.1252525 5.79025415,14.4710322 5.95699171,14.7855438 C6.27898342,15.4126972 6.94601658,15.8044641 7.66665285,15.8044641 L10.35,15.8044641 L10.35,13.7941919 L7.69733057,13.7941919 C7.56122927,13.7941919 7.48076244,13.6433808 7.55932228,13.5366871 C7.58809301,13.4943995 7.62067772,13.4502421 7.65516943,13.400595 C7.90622927,13.0585149 8.26466114,12.5269562 8.62114455,11.9218417 C8.86457643,11.5135654 9.10033886,11.0776412 9.29008472,10.6399267 C9.32843186,10.5608413 9.35906814,10.479926 9.38974585,10.4008008 C9.44148342,10.2610488 9.49516943,10.1304466 9.53347513,9.99988411 C9.57182228,9.88953058 9.6025,9.77364743 9.63317772,9.66512385 C9.72326244,9.29360558 9.76156814,8.90000865 9.76156814,8.49169261 C9.76156814,8.33169191 9.7538987,8.16433167 9.73855985,8.0042912 C9.73093186,7.8295714 9.70792357,7.65485159 9.68491528,7.4801318 C9.66957643,7.32562094 9.64084715,7.1729798 9.61016943,7.0129791 C9.57182228,6.77938287 9.51817772,6.54765636 9.45682228,6.31406012 L9.43576244,6.22578524 C9.38974585,6.06578455 9.3513987,5.91310364 9.29775415,5.75310295 C9.14631399,5.25098242 8.97190699,4.76175108 8.78792357,4.30378788 C8.72084715,4.12170853 8.64415285,3.94698873 8.5675,3.77226892 C8.45440699,3.50923447 8.33940699,3.27014841 8.23398342,3.04391172 C8.18033886,2.94091774 8.13432228,2.84711325 8.08834715,2.75147883 C8.03656814,2.64295524 7.98292357,2.53447143 7.92923756,2.43143766 C7.89093186,2.35235229 7.84682228,2.27879653 7.81614455,2.20524076 L7.48843186,1.62403487 C7.44241528,1.5449495 7.51906814,1.45114501 7.60915285,1.47505362 L9.66,2.0084423 L9.66576244,2.0084423 C9.66957643,2.0084423 9.67148342,2.01027224 9.67343186,2.01027224 L9.94364455,2.08199806 L10.2407624,2.16291338 L10.35,2.19235159 L10.35,1.02262004 C10.35,0.457963193 10.8214834,0 11.4041528,0 C11.6955083,0 11.96,0.114013422 12.1497458,0.299792445 C12.3394917,0.485571468 12.4583472,0.739376644 12.4583472,1.02262004 L12.4583472,2.75883838 L12.6768223,2.81767504 C12.6940681,2.82320465 12.711314,2.8305642 12.7266528,2.84158364 C12.7803389,2.88021136 12.8569917,2.93725785 12.9547458,3.00711394 C13.0313986,3.06599038 13.113814,3.1377162 13.2135166,3.21127197 C13.4109319,3.36395288 13.6466528,3.56075135 13.9054235,3.78694825 C13.974407,3.84399475 14.0414834,3.90283139 14.1028389,3.96170784 C14.436314,4.25963055 14.8100847,4.60910993 15.1665681,4.99534731 C15.2662293,5.10383112 15.3639834,5.21418465 15.4636446,5.3300678 C15.5633472,5.44778089 15.6687293,5.56366404 15.7607624,5.67954718 C15.8814834,5.83401827 16.0118223,5.99401896 16.1249153,6.16141898 C16.1785598,6.24050436 16.2399153,6.32141967 16.2916528,6.40050505 C16.4373305,6.61202262 16.5657624,6.83089975 16.6884319,7.0497371 C16.7401695,7.15090113 16.793814,7.26125467 16.8398305,7.36977826 C16.9758904,7.66221116 17.0832624,7.96017366 17.1522458,8.25813616 C17.1733472,8.32250242 17.1886446,8.3923983 17.196314,8.45493462 L17.196314,8.46961394 C17.2193223,8.5579286 17.2269917,8.65173309 17.2346611,8.74736751 C17.2653389,9.05264979 17.25,9.35797184 17.1809751,9.66512385 C17.1522458,9.79572609 17.1138986,9.91892901 17.0679235,10.0495313 C17.021907,10.1746039 16.9758904,10.3051664 16.9164834,10.4284091 C16.8014834,10.6840442 16.6654235,10.9397191 16.504407,11.1788052 C16.4526695,11.26708 16.391314,11.3608845 16.33,11.4491594 C16.2629235,11.5429639 16.1938986,11.6312786 16.1325847,11.7177234 C16.0482624,11.828077 15.9581777,11.9439204 15.8661446,12.0469144 C15.7837293,12.1554379 15.699407,12.2639615 15.6074153,12.3595959 C15.4789834,12.5048775 15.356314,12.6428394 15.2279235,12.7752716 C15.1512293,12.8617165 15.068814,12.9499913 14.9844917,13.0290767 C14.9020765,13.1173516 14.8177542,13.1964369 14.7410598,13.2699927 C14.6126695,13.3932355 14.5053389,13.4888699 14.4152542,13.5679552 L14.204407,13.7537342 C14.1737293,13.7794728 14.1334751,13.7941919 14.091314,13.7941919 L12.4583472,13.7941919 L12.4583472,15.8044641 L14.5130083,15.8044641 C14.9730083,15.8044641 15.41,15.6481234 15.7626695,15.36122 C15.8833904,15.260056 16.4105083,14.8223018 17.0334319,14.1620503 C17.0544917,14.1399717 17.081314,14.1234225 17.1119917,14.1160631 L22.7872458,12.5416753 C22.8926695,12.5122371 23,12.5894925 23,12.6961862 Z"></path>
        </g>
    </g>
</svg>